<svg version="1.2" xmlns="http://www.w3.org/2000/svg" viewBox="0 0 696 269" width="700" height="271">
	<title>merc_tech</title>
	<defs>
		<linearGradient id="g1" x1="357.3" y1="-2.5" x2="357.4" y2="32.5" gradientUnits="userSpaceOnUse">
			<stop offset="0" stop-color="#6e1413"/>
			<stop offset=".6" stop-color="#ff2e17"/>
			<stop offset="1" stop-color="#ffffff"/>
		</linearGradient>
		<linearGradient id="g2" x1="332.3" y1="34.2" x2="332.5" y2="75.4" gradientUnits="userSpaceOnUse">
			<stop offset="0" stop-color="#6e1413"/>
			<stop offset=".6" stop-color="#ff2e17"/>
			<stop offset="1" stop-color="#ffffff"/>
		</linearGradient>
		<linearGradient id="g3" x1="301.9" y1="-52.7" x2="302.3" y2="81.6" gradientUnits="userSpaceOnUse">
			<stop offset="0" stop-color="#6e1413"/>
			<stop offset=".6" stop-color="#ff2e17"/>
			<stop offset="1" stop-color="#ffffff"/>
		</linearGradient>
		<linearGradient id="g4" x1="306.5" y1="-36" x2="307.3" y2="236.9" gradientUnits="userSpaceOnUse">
			<stop offset="0" stop-color="#ffffff"/>
			<stop offset=".2" stop-color="#ff7455"/>
			<stop offset=".4" stop-color="#ff2e17"/>
			<stop offset="1" stop-color="#7d1916"/>
		</linearGradient>
		<linearGradient id="g5" x1="106.5" y1="238.2" x2="112.1" y2="31" gradientUnits="userSpaceOnUse">
			<stop offset="0" stop-color="#ffffff"/>
			<stop offset=".4" stop-color="#ff2e17"/>
			<stop offset="1" stop-color="#6e1413"/>
		</linearGradient>
		<linearGradient id="g6" x1="251.3" y1="242.1" x2="256.9" y2="34.9" gradientUnits="userSpaceOnUse">
			<stop offset="0" stop-color="#ffffff"/>
			<stop offset=".4" stop-color="#ff2e17"/>
			<stop offset="1" stop-color="#6e1413"/>
		</linearGradient>
		<linearGradient id="g7" x1="6.3" y1="235.5" x2="11.8" y2="28.3" gradientUnits="userSpaceOnUse">
			<stop offset="0" stop-color="#ffffff"/>
			<stop offset=".4" stop-color="#ff2e17"/>
			<stop offset="1" stop-color="#6e1413"/>
		</linearGradient>
		<linearGradient id="g8" x1="357.3" y1="-2.5" x2="357.4" y2="32.5" gradientUnits="userSpaceOnUse">
			<stop offset="0" stop-color="#6e1413"/>
			<stop offset=".6" stop-color="#ff2e17"/>
			<stop offset="1" stop-color="#ffffff"/>
		</linearGradient>
		<linearGradient id="g9" x1="332.3" y1="34.2" x2="332.5" y2="75.4" gradientUnits="userSpaceOnUse">
			<stop offset="0" stop-color="#6e1413"/>
			<stop offset=".6" stop-color="#ff2e17"/>
			<stop offset="1" stop-color="#ffffff"/>
		</linearGradient>
		<linearGradient id="g10" x1="301.9" y1="-52.7" x2="302.3" y2="81.6" gradientUnits="userSpaceOnUse">
			<stop offset="0" stop-color="#6e1413"/>
			<stop offset=".6" stop-color="#ff2e17"/>
			<stop offset="1" stop-color="#ffffff"/>
		</linearGradient>
		<linearGradient id="g11" x1="306.5" y1="-36" x2="307.3" y2="236.9" gradientUnits="userSpaceOnUse">
			<stop offset="0" stop-color="#ffffff"/>
			<stop offset=".2" stop-color="#ff7455"/>
			<stop offset=".4" stop-color="#ff2e17"/>
			<stop offset="1" stop-color="#7d1916"/>
		</linearGradient>
		<linearGradient id="g12" x1="106.5" y1="238.2" x2="112.1" y2="31" gradientUnits="userSpaceOnUse">
			<stop offset="0" stop-color="#ffffff"/>
			<stop offset=".4" stop-color="#ff2e17"/>
			<stop offset="1" stop-color="#6e1413"/>
		</linearGradient>
		<linearGradient id="g13" x1="251.3" y1="242.1" x2="256.9" y2="34.9" gradientUnits="userSpaceOnUse">
			<stop offset="0" stop-color="#ffffff"/>
			<stop offset=".4" stop-color="#ff2e17"/>
			<stop offset="1" stop-color="#6e1413"/>
		</linearGradient>
		<linearGradient id="g14" x1="6.3" y1="235.5" x2="11.8" y2="28.3" gradientUnits="userSpaceOnUse">
			<stop offset="0" stop-color="#ffffff"/>
			<stop offset=".4" stop-color="#ff2e17"/>
			<stop offset="1" stop-color="#6e1413"/>
		</linearGradient>
		<linearGradient id="g15" x1="357.3" y1="-2.5" x2="357.4" y2="32.5" gradientUnits="userSpaceOnUse">
			<stop offset="0" stop-color="#6e1413"/>
			<stop offset=".6" stop-color="#ff2e17"/>
			<stop offset="1" stop-color="#ffffff"/>
		</linearGradient>
		<linearGradient id="g16" x1="301.9" y1="-52.7" x2="302.3" y2="81.6" gradientUnits="userSpaceOnUse">
			<stop offset="0" stop-color="#6e1413"/>
			<stop offset=".6" stop-color="#ff2e17"/>
			<stop offset="1" stop-color="#ffffff"/>
		</linearGradient>
		<linearGradient id="g17" x1="327.6" y1="-18.9" x2="327.9" y2="56.2" gradientUnits="userSpaceOnUse">
			<stop offset="0" stop-color="#6e1413"/>
			<stop offset=".6" stop-color="#ff2e17"/>
			<stop offset="1" stop-color="#ffffff"/>
		</linearGradient>
		<linearGradient id="g18" x1="306.5" y1="-36" x2="307.3" y2="236.9" gradientUnits="userSpaceOnUse">
			<stop offset="0" stop-color="#ffffff"/>
			<stop offset=".2" stop-color="#ff7455"/>
			<stop offset=".4" stop-color="#ff2e17"/>
			<stop offset="1" stop-color="#7d1916"/>
		</linearGradient>
		<linearGradient id="g19" x1="106.5" y1="238.2" x2="112.1" y2="31" gradientUnits="userSpaceOnUse">
			<stop offset="0" stop-color="#ffffff"/>
			<stop offset=".4" stop-color="#ff2e17"/>
			<stop offset="1" stop-color="#6e1413"/>
		</linearGradient>
		<linearGradient id="g20" x1="251.3" y1="242.1" x2="256.9" y2="34.9" gradientUnits="userSpaceOnUse">
			<stop offset="0" stop-color="#ffffff"/>
			<stop offset=".4" stop-color="#ff2e17"/>
			<stop offset="1" stop-color="#6e1413"/>
		</linearGradient>
		<linearGradient id="g21" x1="6.3" y1="235.5" x2="11.8" y2="28.3" gradientUnits="userSpaceOnUse">
			<stop offset="0" stop-color="#ffffff"/>
			<stop offset=".4" stop-color="#ff2e17"/>
			<stop offset="1" stop-color="#6e1413"/>
		</linearGradient>
	</defs>
	<style>
		.s0 { fill: #222e3c } 
		.s1 { fill: url(#g1) } 
		.s2 { fill: url(#g2) } 
		.s3 { fill: url(#g3) } 
		.s4 { fill: url(#g4) } 
		.s5 { fill: url(#g5) } 
		.s6 { fill: url(#g6) } 
		.s7 { fill: url(#g7) } 
		.s8 { fill: url(#g8) } 
		.s9 { fill: url(#g9) } 
		.s10 { fill: url(#g10) } 
		.s11 { fill: url(#g11) } 
		.s12 { fill: url(#g12) } 
		.s13 { fill: url(#g13) } 
		.s14 { fill: url(#g14) } 
		.s15 { fill: #fffeff } 
		.s16 { fill: url(#g15) } 
		.s17 { fill: url(#g16) } 
		.s18 { fill: url(#g17) } 
		.s19 { fill: url(#g18) } 
		.s20 { fill: url(#g19) } 
		.s21 { fill: url(#g20) } 
		.s22 { fill: url(#g21) } 
	</style>
	<path id="MOMENTS" class="s0" aria-label="MERC
"  d="m355.1 127h-15.6v-90.8h17.5l30.8 68.9 30.1-68.9h16.8v90.8h-15.5v-63.2l-24.6 63.2h-14.4l-25.1-63.2zm97.4-90.8h62.1v14.5h-45.4v22.8h43.3v15.1h-43.5v23.8h46.5v14.6h-63zm94.4 90.6h-17.1v-90.6h41.2q27.8 0 27.8 24.3 0 16.4-21.6 27.2l28.7 39.2h-21.2l-27.6-39.5v-7.7q24.1-4.1 24.1-18.7 0-10-11.3-10h-23zm138-18.9v15.2q-11.7 4.4-26.6 4.4-48.9 0-48.9-47.3 0-44.7 48.9-44.7 14.9 0 26.6 4.4v15.3q-11.7-5.1-25.4-5.1-32.6 0-32.6 30.1 0 32.7 32.6 32.7 13.7 0 25.4-5z"/>
	<path id="MOMENTS copy" class="s0" aria-label="TECH
"  d="m339.7 159.2h74.2v15.8h-28.1v82h-18.1v-82h-28zm83 0h66.9v15.6h-48.9v24.6h46.6v16.2h-46.8v25.6h50.1v15.7h-67.9zm161.2 77.3v16.4q-12.7 4.8-28.7 4.8-52.7 0-52.7-51 0-48.2 52.7-48.2 16 0 28.7 4.8v16.4q-12.7-5.4-27.4-5.4-35.2 0-35.2 32.4 0 35.2 35.2 35.2 14.7 0 27.4-5.4zm33.8 20.5h-18.1v-97.8h18.1v40.4h48.2v-40.4h18.1v97.8h-18.1v-41.7h-48.2z"/>
	<path id="&lt;Path&gt;" class="s1" d="m356 26h-17.2v-17.2h17.2z"/>
	<path id="&lt;Path&gt;" class="s2" d="m331 63.3h-11.8v-11.8h11.8z"/>
	<path id="&lt;Path&gt;" class="s3" d="m268.5 20.5h30.5v30.4h-30.5z"/>
	<path id="&lt;Compound Path&gt;" fill-rule="evenodd" class="s4" d="m254.9 62.3h48.8v195.1h-97.6l-48.8-48.7-48.7 48.7h-97.6v-243.8h97.5l48.8 48.7 48.8-48.7h48.8zm0 0h-48.8l-48.8 48.7-48.7-48.7h-48.8v146.3h48.8v-97.6l48.7 48.8 48.8-48.8v97.6h48.8z"/>
	<path id="&lt;Path&gt;" class="s5" d="m157.3 165.9l44.5-44.5v77.4q-2.8-0.3-5.6-0.6c-21.4-3.5-42.3-8.9-62.7-16.3-2.1-0.7-7.5-2.9-10.6-4.2q-5.1-2.3-10.1-4.8v-51.5z"/>
	<path id="&lt;Path&gt;" class="s6" d="m259.1 198.8v-132.2h40.3v123.7c-11.9 3.4-24 6.1-36.2 8.2q-2 0.2-4.1 0.3z"/>
	<path id="&lt;Path&gt;" class="s7" d="m15.3 101.9v-84.1h91.5l50.5 50.5 50.6-50.5h42.7v40.3h-46.3l-47 47-47-47h-54.8v79.7q-0.6-0.4-1-0.8c-9.7-7.8-18.8-16.3-28-24.6q-5.7-5.2-11.2-10.5z"/>
	<path id="MOMENTS copy 4" class="s0" aria-label="MERC
"  d="m355.1 127h-15.6v-90.8h17.5l30.8 68.9 30.1-68.9h16.8v90.8h-15.5v-63.2l-24.6 63.2h-14.4l-25.1-63.2zm97.4-90.8h62.1v14.5h-45.4v22.8h43.3v15.1h-43.5v23.8h46.5v14.6h-63zm94.4 90.6h-17.1v-90.6h41.2q27.8 0 27.8 24.3 0 16.4-21.6 27.2l28.7 39.2h-21.2l-27.6-39.5v-7.7q24.1-4.1 24.1-18.7 0-10-11.3-10h-23zm138-18.9v15.2q-11.7 4.4-26.6 4.4-48.9 0-48.9-47.3 0-44.7 48.9-44.7 14.9 0 26.6 4.4v15.3q-11.7-5.1-25.4-5.1-32.6 0-32.6 30.1 0 32.7 32.6 32.7 13.7 0 25.4-5z"/>
	<path id="MOMENTS copy 5" class="s0" aria-label="TECH
"  d="m339.7 159.2h74.2v15.8h-28.1v82h-18.1v-82h-28zm83 0h66.9v15.6h-48.9v24.6h46.6v16.2h-46.8v25.6h50.1v15.7h-67.9zm161.2 77.3v16.4q-12.7 4.8-28.7 4.8-52.7 0-52.7-51 0-48.2 52.7-48.2 16 0 28.7 4.8v16.4q-12.7-5.4-27.4-5.4-35.2 0-35.2 32.4 0 35.2 35.2 35.2 14.7 0 27.4-5.4zm33.8 20.5h-18.1v-97.8h18.1v40.4h48.2v-40.4h18.1v97.8h-18.1v-41.7h-48.2z"/>
	<path id="&lt;Path&gt; copy 2" class="s8" d="m356 26h-17.2v-17.2h17.2z"/>
	<path id="&lt;Path&gt; copy 8" class="s9" d="m331 63.3h-11.8v-11.8h11.8z"/>
	<path id="&lt;Path&gt; copy 9" class="s10" d="m268.5 20.5h30.5v30.4h-30.5z"/>
	<path id="&lt;Compound Path&gt; copy 2" fill-rule="evenodd" class="s11" d="m254.9 62.3h48.8v195.1h-97.6l-48.8-48.7-48.7 48.7h-97.6v-243.8h97.5l48.8 48.7 48.8-48.7h48.8zm0 0h-48.8l-48.8 48.7-48.7-48.7h-48.8v146.3h48.8v-97.6l48.7 48.8 48.8-48.8v97.6h48.8z"/>
	<path id="&lt;Path&gt; copy 10" class="s12" d="m157.3 165.9l44.5-44.5v77.4q-2.8-0.3-5.6-0.6c-21.4-3.5-42.3-8.9-62.7-16.3-2.1-0.7-7.5-2.9-10.6-4.2q-5.1-2.3-10.1-4.8v-51.5z"/>
	<path id="&lt;Path&gt; copy 11" class="s13" d="m259.1 198.8v-132.2h40.3v123.7c-11.9 3.4-24 6.1-36.2 8.2q-2 0.2-4.1 0.3z"/>
	<path id="&lt;Path&gt; copy 12" class="s14" d="m15.3 101.9v-84.1h91.5l50.5 50.5 50.6-50.5h42.7v40.3h-46.3l-47 47-47-47h-54.8v79.7q-0.6-0.4-1-0.8c-9.7-7.8-18.8-16.3-28-24.6q-5.7-5.2-11.2-10.5z"/>
	<path id="MOMENTS copy 2" class="s15" aria-label="MERC
"  d="m355.1 125h-15.6v-90.8h17.5l30.8 68.9 30.1-68.9h16.8v90.8h-15.5v-63.2l-24.6 63.2h-14.4l-25.1-63.2zm97.4-90.8h62.1v14.5h-45.4v22.8h43.3v15.1h-43.5v23.8h46.5v14.6h-63zm94.4 90.6h-17.1v-90.6h41.2q27.8 0 27.8 24.3 0 16.4-21.6 27.2l28.7 39.2h-21.2l-27.6-39.5v-7.7q24.1-4.1 24.1-18.7 0-10-11.3-10h-23zm138-18.9v15.2q-11.7 4.4-26.6 4.4-48.9 0-48.9-47.3 0-44.7 48.9-44.7 14.9 0 26.6 4.4v15.3q-11.7-5.1-25.4-5.1-32.6 0-32.6 30.1 0 32.7 32.6 32.7 13.7 0 25.4-5z"/>
	<path id="MOMENTS copy 3" class="s15" aria-label="TECH
"  d="m339.7 157.2h74.2v15.8h-28.1v82h-18.1v-82h-28zm83 0h66.9v15.6h-48.9v24.6h46.6v16.2h-46.8v25.6h50.1v15.7h-67.9zm161.2 77.3v16.4q-12.7 4.8-28.7 4.8-52.7 0-52.7-51 0-48.2 52.7-48.2 16 0 28.7 4.8v16.4q-12.7-5.4-27.4-5.4-35.2 0-35.2 32.4 0 35.2 35.2 35.2 14.7 0 27.4-5.4zm33.8 20.5h-18.1v-97.8h18.1v40.4h48.2v-40.4h18.1v97.8h-18.1v-41.7h-48.2z"/>
	<path id="&lt;Path&gt; copy" class="s16" d="m356 26h-17.2v-17.2h17.2z"/>
	<path id="&lt;Path&gt; copy 3" class="s17" d="m268.5 20.5h30.5v30.4h-30.5z"/>
	<path id="&lt;Path&gt; copy 7" class="s18" d="m309 22h17v17h-17z"/>
	<path id="&lt;Compound Path&gt; copy" fill-rule="evenodd" class="s19" d="m254.9 62.3h48.8v195.1h-97.6l-48.8-48.7-48.7 48.7h-97.6v-243.8h97.5l48.8 48.7 48.8-48.7h48.8zm0 0h-48.8l-48.8 48.7-48.7-48.7h-48.8v146.3h48.8v-97.6l48.7 48.8 48.8-48.8v97.6h48.8z"/>
	<path id="&lt;Path&gt; copy 4" class="s20" d="m157.3 165.9l44.5-44.5v77.4q-2.8-0.3-5.6-0.6c-21.4-3.5-42.3-8.9-62.7-16.3-2.1-0.7-7.5-2.9-10.6-4.2q-5.1-2.3-10.1-4.8v-51.5z"/>
	<path id="&lt;Path&gt; copy 5" class="s21" d="m259.1 198.8v-132.2h40.3v123.7c-11.9 3.4-24 6.1-36.2 8.2q-2 0.2-4.1 0.3z"/>
	<path id="&lt;Path&gt; copy 6" class="s22" d="m15.3 101.9v-84.1h91.5l50.5 50.5 50.6-50.5h42.7v40.3h-46.3l-47 47-47-47h-54.8v79.7q-0.6-0.4-1-0.8c-9.7-7.8-18.8-16.3-28-24.6q-5.7-5.2-11.2-10.5z"/>
</svg>